<svg width="32" height="32" viewBox="0 0 32 32" fill="none" xmlns="http://www.w3.org/2000/svg">
  <rect width="32" height="32" rx="7" fill="#0058b4"/>
  <path d="M15.5 3.5L13.5 11H15.5V14.5H12.5L11 19.5C10.5 21.5 8.5 23 6.5 23C3.5 23 1.5 20 2.3 17.5L2.5 16.8C3.2 14.7 5.2 13.2 7.5 13.2H11L13 5.5L15.5 3.5ZM25.5 2C28.5 2 30.5 5 29.7 7.5L29.5 8.2C28.8 10.3 26.8 11.8 24.5 11.8H21L19 19.5L16.5 21.5L18.5 13.5H16.5V10H19.5L21 5C21.5 3 23.5 1.5 25.5 2ZM7.5 15.5C6 15.5 4.8 16.5 4.4 17.8L4.2 18.5C3.8 20 5 21.5 6.5 21.5C7.8 21.5 8.8 20.5 9.2 19.3L10.2 15.5H7.5ZM25.5 3.5C24.2 3.5 23.2 4.5 22.8 5.7L21.8 9.5H24.5C26 9.5 27.2 8.5 27.6 7.2L27.8 6.5C28.2 5 27 3.5 25.5 3.5Z" fill="white"/>
</svg>
